<svg xmlns="http://www.w3.org/2000/svg" xmlns:xlink="http://www.w3.org/1999/xlink" contentStyleType="text/css" data-diagram-type="MINDMAP" height="538px" preserveAspectRatio="none" style="width:315px;height:538px;background:#0D1117;" version="1.1" viewBox="0 0 315 538" width="315px" zoomAndPan="magnify"><?plantuml 1.2026.6?><defs/><g><rect fill="#0D1117" height="538" style="stroke:none;stroke-width:1;" width="315" x="0" y="0"/><g class="title" data-source-line="2"><text fill="#F0F6FC" font-family="sans-serif" font-size="14" font-weight="700" lengthAdjust="spacing" textLength="237.2754" x="36.1792" y="34.5332">Herarkiya ng Dominyo at Konteksto</text><text fill="#F0F6FC" font-family="sans-serif" font-size="14" font-weight="700" lengthAdjust="spacing" textLength="213.9238" x="51.7446" y="52.1426">(Domain and Context Hierarchy)</text></g><rect fill="#21262D" height="37.6094" rx="12.5" ry="12.5" style="stroke:#181818;stroke-width:1.5;" width="55.7998" x="10" y="277.8516"/><text fill="#C9D1D9" font-family="sans-serif" font-size="14" lengthAdjust="spacing" textLength="35.7998" x="20" y="302.3848">SKLB</text><rect fill="#21262D" height="37.6094" rx="12.5" ry="12.5" style="stroke:#181818;stroke-width:1.5;" width="51.1309" x="115.7998" y="105.0234"/><text fill="#C9D1D9" font-family="sans-serif" font-size="14" lengthAdjust="spacing" textLength="31.1309" x="125.7998" y="129.5566">Salig</text><rect fill="#30363D" height="37.6094" rx="12.5" ry="12.5" style="stroke:#181818;stroke-width:1.5;" width="65.1309" x="216.9307" y="76.2188"/><text fill="#C9D1D9" font-family="sans-serif" font-size="14" lengthAdjust="spacing" textLength="45.1309" x="226.9307" y="100.752">kumpig</text><path d="M166.9307,123.8281 L176.9307,123.8281 C191.9307,123.8281 191.9307,95.0234 206.9307,95.0234 L216.9307,95.0234" fill="none" style="stroke:#FFFFFF;stroke-width:1;"/><rect fill="#30363D" height="37.6094" rx="12.5" ry="12.5" style="stroke:#181818;stroke-width:1.5;" width="31.6689" x="216.9307" y="133.8281"/><text fill="#C9D1D9" font-family="sans-serif" font-size="14" lengthAdjust="spacing" textLength="11.6689" x="226.9307" y="158.3613">...</text><path d="M166.9307,123.8281 L176.9307,123.8281 C191.9307,123.8281 191.9307,152.6328 206.9307,152.6328 L216.9307,152.6328" fill="none" style="stroke:#FFFFFF;stroke-width:1;"/><path d="M65.7998,296.6563 L75.7998,296.6563 C90.7998,296.6563 90.7998,123.8281 105.7998,123.8281 L115.7998,123.8281" fill="none" style="stroke:#FFFFFF;stroke-width:1;"/><rect fill="#21262D" height="37.6094" rx="12.5" ry="12.5" style="stroke:#181818;stroke-width:1.5;" width="63.5928" x="115.7998" y="220.2422"/><text fill="#C9D1D9" font-family="sans-serif" font-size="14" lengthAdjust="spacing" textLength="43.5928" x="125.7998" y="244.7754">Bahala</text><rect fill="#30363D" height="37.6094" rx="12.5" ry="12.5" style="stroke:#181818;stroke-width:1.5;" width="65.1309" x="229.3926" y="191.4375"/><text fill="#C9D1D9" font-family="sans-serif" font-size="14" lengthAdjust="spacing" textLength="45.1309" x="239.3926" y="215.9707">kumpig</text><path d="M179.3926,239.0469 L189.3926,239.0469 C204.3926,239.0469 204.3926,210.2422 219.3926,210.2422 L229.3926,210.2422" fill="none" style="stroke:#FFFFFF;stroke-width:1;"/><rect fill="#30363D" height="37.6094" rx="12.5" ry="12.5" style="stroke:#181818;stroke-width:1.5;" width="31.6689" x="229.3926" y="249.0469"/><text fill="#C9D1D9" font-family="sans-serif" font-size="14" lengthAdjust="spacing" textLength="11.6689" x="239.3926" y="273.5801">...</text><path d="M179.3926,239.0469 L189.3926,239.0469 C204.3926,239.0469 204.3926,267.8516 219.3926,267.8516 L229.3926,267.8516" fill="none" style="stroke:#FFFFFF;stroke-width:1;"/><path d="M65.7998,296.6563 L75.7998,296.6563 C90.7998,296.6563 90.7998,239.0469 105.7998,239.0469 L115.7998,239.0469" fill="none" style="stroke:#FFFFFF;stroke-width:1;"/><rect fill="#21262D" height="37.6094" rx="12.5" ry="12.5" style="stroke:#181818;stroke-width:1.5;" width="61.2207" x="115.7998" y="335.4609"/><text fill="#C9D1D9" font-family="sans-serif" font-size="14" lengthAdjust="spacing" textLength="37.3311" x="125.7998" y="359.9941">Malim</text><rect fill="#30363D" height="37.6094" rx="12.5" ry="12.5" style="stroke:#181818;stroke-width:1.5;" width="42.5586" x="227.0205" y="306.6563"/><text fill="#C9D1D9" font-family="sans-serif" font-size="14" lengthAdjust="spacing" textLength="22.5586" x="237.0205" y="331.1895">suri</text><path d="M177.0205,354.2656 L187.0205,354.2656 C202.0205,354.2656 202.0205,325.4609 217.0205,325.4609 L227.0205,325.4609" fill="none" style="stroke:#FFFFFF;stroke-width:1;"/><rect fill="#30363D" height="37.6094" rx="12.5" ry="12.5" style="stroke:#181818;stroke-width:1.5;" width="31.6689" x="227.0205" y="364.2656"/><text fill="#C9D1D9" font-family="sans-serif" font-size="14" lengthAdjust="spacing" textLength="11.6689" x="237.0205" y="388.7988">...</text><path d="M177.0205,354.2656 L187.0205,354.2656 C202.0205,354.2656 202.0205,383.0703 217.0205,383.0703 L227.0205,383.0703" fill="none" style="stroke:#FFFFFF;stroke-width:1;"/><path d="M65.7998,296.6563 L75.7998,296.6563 C90.7998,296.6563 90.7998,354.2656 105.7998,354.2656 L115.7998,354.2656" fill="none" style="stroke:#FFFFFF;stroke-width:1;"/><rect fill="#21262D" height="37.6094" rx="12.5" ry="12.5" style="stroke:#181818;stroke-width:1.5;" width="67.4824" x="115.7998" y="450.6797"/><text fill="#C9D1D9" font-family="sans-serif" font-size="14" lengthAdjust="spacing" textLength="43.5928" x="125.7998" y="475.2129">Balana</text><rect fill="#30363D" height="37.6094" rx="12.5" ry="12.5" style="stroke:#181818;stroke-width:1.5;" width="57.3447" x="233.2822" y="421.875"/><text fill="#C9D1D9" font-family="sans-serif" font-size="14" lengthAdjust="spacing" textLength="37.3447" x="243.2822" y="446.4082">masid</text><path d="M183.2822,469.4844 L193.2822,469.4844 C208.2822,469.4844 208.2822,440.6797 223.2822,440.6797 L233.2822,440.6797" fill="none" style="stroke:#FFFFFF;stroke-width:1;"/><rect fill="#30363D" height="37.6094" rx="12.5" ry="12.5" style="stroke:#181818;stroke-width:1.5;" width="31.6689" x="233.2822" y="479.4844"/><text fill="#C9D1D9" font-family="sans-serif" font-size="14" lengthAdjust="spacing" textLength="11.6689" x="243.2822" y="504.0176">...</text><path d="M183.2822,469.4844 L193.2822,469.4844 C208.2822,469.4844 208.2822,498.2891 223.2822,498.2891 L233.2822,498.2891" fill="none" style="stroke:#FFFFFF;stroke-width:1;"/><path d="M65.7998,296.6563 L75.7998,296.6563 C90.7998,296.6563 90.7998,469.4844 105.7998,469.4844 L115.7998,469.4844" fill="none" style="stroke:#FFFFFF;stroke-width:1;"/><?plantuml-src vPHFRu904CNl-ocsyT8sSHLCQRsf46AYRPhOMzl3H5RSi7_8iiJwxRi8DIWKcrvwA2Ts-CrxRp8R9fa1RGIJaO0K1qe0atsGKTzNqj0Fqvypga6ljtk433ESudbnJjWUi8oB1YRt2eF1Yw8XoOp2Rn9VbqhOAk5A2H-LRX2wOdBDyuXYGWPcImKTH5QqVtWbQIuuGhUlFTTnFJTunwl5SePkwmNWBBOLMneDHzx8bf9SfESrGWWwwPl15ZZyel7H6Wfy2cMvPXVzE4WuwnEGiQYbSKBj4if5sCFVx0Lb2PCfQ10s-pg9jSfbv2kkDEuD0yTnxcj4G3UGSnDQdGhnnu4JZ6l8QWkHsZ6RQ0CyetNzbo9rhJSSXbxerubdcm1YsWZYUCxCTLj0fIEgA-ZkOUg5OHDgfgqnlXAfabIQXcUvqLQqq_M8TVhQPPiVp5bYdNu7fDFhIRLObHVndAexXOVdZEWqgYxlvR6-mCx1AgZJSQgrsdsNTyaaFVtst_yn3d67haUyJm00?></g></svg>